<svg xmlns="http://www.w3.org/2000/svg" viewBox="0 0 74.18 114.65">
    <defs>
        <style>.cls-1{fill:#231815;}</style>
    </defs>
    <g id="레이어_2" data-name="레이어 2">
        <g id="레이어_1-2" data-name="레이어 1">
            <path class="cls-1" d="M67,52.52h0l0,0-.32-.58C52.7,28.23,46.8,19.41,42.82,5.73,41.92,2.65,40.25,0,37.09,0s-4.83,2.65-5.73,5.73c-4,13.68-9.88,22.5-23.81,46.17l-.32.58,0,0h0C4.41,57.73,0,66,0,77.56a37.09,37.09,0,0,0,74.18,0C74.18,66,69.77,57.73,67,52.52Zm-29.88,54A30.22,30.22,0,0,1,6.88,76.33c0-9.43,3.6-16.15,5.88-20.4h0l0,0c.08-.16.16-.31.26-.47,11.33-19.28,18-26.46,21.27-37.6.73-2.51,1.09-5.33,2.78-5.33s2,2.82,2.78,5.33C43.11,29,49.81,36.15,61.15,55.43l.26.47v0h0c2.28,4.25,5.88,11,5.88,20.4A30.22,30.22,0,0,1,37.09,106.54Z" />
        </g>
    </g>
</svg>