<svg xmlns="http://www.w3.org/2000/svg" viewBox="0 0 86.17 133.19"><defs><style>.cls-1{fill:#fff;}.cls-2{fill:#0019ff;}</style></defs><g id="레이어_2" data-name="레이어 2"><g id="레이어_1-2" data-name="레이어 1"><path class="cls-1" d="M77.79,61h0l0,0c-.12-.22-.24-.45-.37-.67-16.17-27.5-23-37.74-27.66-53.64-1-3.57-3-6.65-6.65-6.65s-5.62,3.08-6.66,6.65C31.81,22.55,25,32.79,8.77,60.29c-.13.22-.24.45-.37.67l0,0h0C5.13,67.07,0,76.65,0,90.1a43.09,43.09,0,1,0,86.17,0C86.17,76.65,81.05,67.07,77.79,61Z"/><path class="cls-2" d="M73,65.62h0l0,0c-.1-.19-.2-.38-.32-.57C58.7,41.33,52.79,32.51,48.81,18.83c-.89-3.07-2.56-5.72-5.72-5.72s-4.84,2.65-5.73,5.72c-4,13.68-9.89,22.5-23.81,46.18l-.32.57,0,0h0C10.41,70.84,6,79.09,6,90.67a37.09,37.09,0,0,0,74.18,0C80.18,79.09,75.76,70.84,73,65.62Z"/></g></g></svg>