<svg xmlns="http://www.w3.org/2000/svg" viewBox="0 0 97.27 90.32">
    <defs>
        <style>.cls-1{fill:#0000ff;}</style>
    </defs>
    <g id="레이어_2" data-name="레이어 2">
        <g id="레이어_1-2" data-name="레이어 1">
            <path class="cls-1" d="M69.35,40.4c-10,0-16.27-8.28-22.38-16.29C40.66,15.83,34.7,8,25.15,8c-6.8,0-11.55,2.85-14.51,8.72A27.28,27.28,0,0,0,8,26.46l-8-.3A34.82,34.82,0,0,1,3.36,13.38C6.37,7.28,12.59,0,25.15,0,38.66,0,46.46,10.23,53.34,19.26c5.37,7,10,13.14,16,13.14,16.09,0,20-24.26,20-24.5l7.91,1.18a56,56,0,0,1-4.94,15.17C87,34.82,79.06,40.4,69.35,40.4Z" />
            <path class="cls-1" d="M69.35,65.36c-10,0-16.27-8.28-22.38-16.29C40.66,40.78,34.7,33,25.15,33c-6.8,0-11.55,2.85-14.51,8.72A27.24,27.24,0,0,0,8,51.42l-8-.31A34.83,34.83,0,0,1,3.36,38.34C6.37,32.24,12.59,25,25.15,25c13.51,0,21.31,10.23,28.19,19.26,5.37,7.05,10,13.14,16,13.14,16.09,0,20-24.26,20-24.5L97.27,34a56,56,0,0,1-4.94,15.17C87,59.77,79.06,65.36,69.35,65.36Z" />
            <path class="cls-1" d="M69.35,90.32C59.39,90.32,53.08,82,47,74,40.66,65.74,34.7,57.91,25.15,57.91c-6.8,0-11.55,2.86-14.51,8.72A27.31,27.31,0,0,0,8,76.38l-8-.31A34.83,34.83,0,0,1,3.36,63.3c3-6.11,9.23-13.39,21.79-13.39,13.51,0,21.31,10.24,28.19,19.27,5.37,7,10,13.14,16,13.14,16.09,0,20-24.26,20-24.51L97.27,59a55.88,55.88,0,0,1-4.94,15.16C87,84.73,79.06,90.32,69.35,90.32Z" />
        </g>
    </g>
</svg>