<svg id="Layer_1" data-name="Layer 1" xmlns="http://www.w3.org/2000/svg" viewBox="0 0 14.91 14.91"><defs><style>.cls-1{fill:blue;}</style></defs><polygon class="cls-1" points="7.45 0 8.18 3.79 10.3 0.56 9.52 4.35 12.72 2.18 10.55 5.38 14.34 4.6 11.11 6.72 14.91 7.45 11.11 8.18 14.34 10.3 10.55 9.52 12.72 12.72 9.52 10.55 10.3 14.34 8.18 11.11 7.45 14.91 6.72 11.11 4.6 14.34 5.38 10.55 2.18 12.72 4.35 9.52 0.56 10.3 3.79 8.18 0 7.45 3.79 6.72 0.56 4.6 4.35 5.38 2.18 2.18 5.38 4.35 4.6 0.56 6.72 3.79 7.45 0"/></svg>