<svg xmlns="http://www.w3.org/2000/svg" viewBox="0 0 75.69 125.77"><defs><style>.cls-1{fill:#fff;}.cls-2{fill:blue;}</style></defs><g id="레이어_2" data-name="레이어 2"><g id="레이어_1-2" data-name="레이어 1"><path class="cls-1" d="M68.48,18.31H52.06A19.38,19.38,0,0,0,32.77,0h0A19.39,19.39,0,0,0,13.43,19.34V66.55a32.78,32.78,0,1,0,38.69,0V57.23H68.48A7.2,7.2,0,0,0,75.69,50V25.51A7.2,7.2,0,0,0,68.48,18.31Z"/><path class="cls-2" d="M49,71.11V19.92A16.23,16.23,0,0,0,32.77,3.74h0A16.23,16.23,0,0,0,16.59,19.92V71.11a27.41,27.41,0,1,0,32.36,0ZM32.77,114.32A21.08,21.08,0,0,1,24.13,74V19.6a8.65,8.65,0,0,1,17.29,0V74a21.08,21.08,0,0,1-8.65,40.3Z"/><path class="cls-2" d="M36.92,76.39v-15a4.15,4.15,0,1,0-8.29,0v15a17.37,17.37,0,1,0,8.29,0Z"/><rect class="cls-2" x="60.97" y="42.21" width="4.4" height="18.27" rx="2.2" transform="translate(114.52 -11.83) rotate(90)"/><rect class="cls-2" x="60.97" y="29.53" width="4.4" height="18.27" rx="2.2" transform="translate(101.84 -24.51) rotate(90)"/><rect class="cls-2" x="60.97" y="16.86" width="4.4" height="18.27" rx="2.2" transform="translate(89.17 -37.18) rotate(90)"/></g></g></svg>