<svg xmlns="http://www.w3.org/2000/svg" viewBox="0 0 111.24 106.29">
    <defs>
        <style>.cls-1{fill:#fff;}.cls-2{fill:blue;}</style>
    </defs>
    <g id="레이어_2" data-name="레이어 2">
        <g id="레이어_1-2" data-name="레이어 1">
            <path class="cls-1" d="M0,22.11v66.5c0,6.06,18,7.68,18-.1,0-4.92-.71-14.18,13-14.18s21.14,32,45.41,32,34.79-20.13,34.79-41.57V16.18c0-12.94-21.85-11.78-21.85-2.34,0,4.31-5.26,14.47-12.54,14.47C59.67,28.31,58.65,0,28.72,0,11.73,0,0,16.13,0,22.11Z" />
            <path class="cls-2" d="M75.68,48.72c-10,0-16.27-8.29-22.37-16.3C47,24.14,41,16.31,31.48,16.31c-6.8,0-11.55,2.85-14.51,8.72a26.91,26.91,0,0,0-2.64,9.74l-8-.3A34.83,34.83,0,0,1,9.69,21.7c3-6.11,9.23-13.39,21.79-13.39C45,8.31,52.79,18.54,59.67,27.57c5.37,7.06,10,13.15,16,13.15,16.09,0,20-24.27,20-24.51l7.91,1.19a56,56,0,0,1-4.94,15.16C93.34,43.13,85.39,48.72,75.68,48.72Z" />
            <path class="cls-2" d="M75.68,73.67c-10,0-16.27-8.28-22.37-16.29C47,49.09,41,41.27,31.48,41.27c-6.8,0-11.55,2.85-14.51,8.72a26.86,26.86,0,0,0-2.64,9.74l-8-.31A34.83,34.83,0,0,1,9.69,46.65c3-6.1,9.23-13.38,21.79-13.38C45,33.27,52.79,43.5,59.67,52.53c5.37,7,10,13.14,16,13.14,16.09,0,20-24.26,20-24.5l7.91,1.18a56,56,0,0,1-4.94,15.17C93.34,68.09,85.39,73.67,75.68,73.67Z" />
            <path class="cls-2" d="M75.68,98.63c-10,0-16.27-8.28-22.37-16.29C47,74.05,41,66.22,31.48,66.22c-6.8,0-11.55,2.86-14.51,8.72a26.93,26.93,0,0,0-2.64,9.75l-8-.31A34.83,34.83,0,0,1,9.69,71.61c3-6.11,9.23-13.39,21.79-13.39,13.51,0,21.31,10.24,28.19,19.27,5.37,7.05,10,13.14,16,13.14,16.09,0,20-24.26,20-24.51l7.91,1.19a55.88,55.88,0,0,1-4.94,15.16C93.34,93,85.39,98.63,75.68,98.63Z" />
        </g>
    </g>
</svg>